<?xml version="1.0" encoding="UTF-8"?><svg xmlns="http://www.w3.org/2000/svg" xmlns:xlink="http://www.w3.org/1999/xlink" viewBox="0 0 206 203"><defs><style>.cls-1{stroke:#c5cd8b;}.cls-1,.cls-2,.cls-3{fill:none;stroke-miterlimit:10;}.cls-2{stroke:#e5eb9b;}.cls-3{stroke:url(#linear-gradient);}</style><linearGradient id="linear-gradient" x1="34.53715" y1="160.96671" x2="75.75814" y2="160.96671" gradientTransform="matrix(1, 0, 0, 1, 0, 0)" gradientUnits="userSpaceOnUse"><stop offset="0" stop-color="#ed1c24"/><stop offset=".06093" stop-color="#e42425"/><stop offset=".16032" stop-color="#ce3d2b"/><stop offset=".2858" stop-color="#aa6533"/><stop offset=".43104" stop-color="#789b3f"/><stop offset=".5" stop-color="#5eb846"/><stop offset=".71025" stop-color="#98cd6a"/><stop offset=".90395" stop-color="#c8df88"/><stop offset="1" stop-color="#dbe694"/></linearGradient></defs><g id="Layer_2"><ellipse class="cls-1" cx="49.53822" cy="132.36074" rx="5.60942" ry="5.84282"/></g><g id="Layer_4"><path class="cls-2" d="M45.28787,173.00344c.84258-.16745-4.59024,8.69327-15.83394,6.35364-1.87466-.39008-3.55179-1.8851-4.23222-3.67496-.72673-1.91165-1.11714-4.70597,1.80584-7.19145,1.03035-.87613,2.26408-1.4734,3.56183-1.85426,1.98253-.58182,5.56371-1.09281,7.62296,.93721"/></g><g id="Layer_3"><path class="cls-3" d="M43.22147,156.0087h6.76596l2.10638-3.31915,2.06469,3.31438,2.78637,4.47286,2.12787-4.34653,3.30043-.15985c.38853-.01822,.71625-.31038,.77717-.69454,.16636-1.04916,.26739-1.96276,.32515-2.74407,.19429-2.62815-.50564-5.27999-2.14786-7.34107-4.16053-5.2217-9.36398-.54204-11.33381,1.49196-.44109,.45546-1.16309,.50394-1.65273,.10114-5.99337-4.93041-10.49763-3.63716-12.21269-.42036-2.27351,4.26425-.80852,10.17489,2.67466,13.04165l8.8871,7.70316,5.00886,4.34158s8.74468,9.17021,17,7.46809c3.24316-.66869,4.69996-2.51333,5.27342-4.30694,.98961-3.09519-.68166-6.4022-3.62108-7.7876-3.10687-1.46432-7.78737-2.4304-11.18426,1.54135"/></g></svg>